:FULLY-SPECIFIED
:FORCE-ALL-JOINTS-BE-3DOF
:DEGREES
985
root 1.0847 15.135 32.5493 5.70062 -4.86188 364.032
lfemur 8.73118 2.06415 5.38916
ltibia -9.91585e-015 0 0
lfoot -30.148 -11.8015 0
ltoes -33.7202 0 0
rfemur -33.5227 -16.2004 -5.99727
rtibia 51.3792 0 0
rfoot -22.8206 5.93789 0
rtoes -41.4874 0 0
lowerback -1.59565 -0.40562 0.644181
upperback -0.851196 -0.549547 -6.05081
thorax -0.0489384 -0.296226 -6.65409
lowerneck -6.5862 1.16762 5.92852
upperneck 0.528625 1.00174 3.2928
head 1.28393 0.584987 0.0608151
lclavicle 8.86932e-015 2.71278e-015 0
lhumerus -58.4529 -44.6849 114.557
lradius 55.1592 0 0
lwrist 25.3748 0 0
lhand 37.1173 25.1429 0
lfingers 7.12502 0 0
lthumb 59.9656 38.9591 0
rclavicle 8.86932e-015 2.71278e-015 0
rhumerus 3.76129 -25.3549 0.748064
rradius 28.2411 0 0
rwrist -12.1293 0 0
rhand -31.5875 -45.3832 0
rfingers 7.12502 0 0
rthumb -4.85042 -795.307 0
986
root 1.08644 15.1357 32.5463 5.67701 -4.82024 364.018
lfemur 8.7221 2.01808 5.39948
ltibia -1.02589e-014 0 0
lfoot -30.148 -11.7781 0
ltoes -33.7408 0 0
rfemur -33.4672 -16.1934 -5.99768
rtibia 51.3463 0 0
rfoot -22.8083 5.90256 0
rtoes -41.5184 0 0
lowerback -1.59171 -0.398605 0.63384
upperback -0.841927 -0.539576 -6.04733
thorax -0.040292 -0.290823 -6.64426
lowerneck -6.6038 1.16021 5.93782
upperneck 0.559556 0.988146 3.29667
head 1.29691 0.579564 0.0601622
lclavicle 8.49319e-015 2.15151e-015 0
lhumerus -58.4573 -44.7325 114.576
lradius 55.1763 0 0
lwrist 25.3733 0 0
lhand 37.1202 25.1378 0
lfingers 7.12502 0 0
lthumb 59.9682 38.9513 0
rclavicle 8.49319e-015 2.15151e-015 0
rhumerus 3.73321 -25.3119 0.735516
rradius 28.2256 0 0
rwrist -12.0763 0 0
rhand -31.5632 -45.3117 0
rfingers 7.12502 0 0
rthumb -4.82694 -795.236 0
987
root 1.08818 15.1364 32.5433 5.65341 -4.77861 364.005
lfemur 8.71302 1.97201 5.40979
ltibia -1.06019e-014 0 0
lfoot -30.1479 -11.7547 0
ltoes -33.7614 0 0
rfemur -33.4117 -16.1865 -5.99808
rtibia 51.3133 0 0
rfoot -22.7959 5.86723 0
rtoes -41.5495 0 0
lowerback -1.58778 -0.39159 0.6235
upperback -0.832657 -0.529605 -6.04384
thorax -0.0316457 -0.28542 -6.63443
lowerneck -6.6214 1.15279 5.94712
upperneck 0.590487 0.974553 3.30054
head 1.30988 0.574141 0.0595093
lclavicle 8.11705e-015 1.59023e-015 0
lhumerus -58.4618 -44.78 114.594
lradius 55.1935 0 0
lwrist 25.3718 0 0
lhand 37.1232 25.1327 0
lfingers 7.12502 0 0
lthumb 59.9707 38.9436 0
rclavicle 8.11705e-015 1.59023e-015 0
rhumerus 3.70513 -25.2689 0.722969
rradius 28.2101 0 0
rwrist -12.0232 0 0
rhand -31.5389 -45.2403 0
rfingers 7.12502 0 0
rthumb -4.80345 -795.165 0
988
root 1.08993 15.1371 32.5404 5.6298 -4.73697 363.991
lfemur 8.70394 1.92594 5.42011
ltibia -1.09449e-014 0 0
lfoot -30.1479 -11.7313 0
ltoes -33.7819 0 0
rfemur -33.3562 -16.1796 -5.99849
rtibia 51.2804 0 0
rfoot -22.7835 5.8319 0
rtoes -41.5806 0 0
lowerback -1.58384 -0.384575 0.613159
upperback -0.823388 -0.519634 -6.04036
thorax -0.0229993 -0.280016 -6.62459
lowerneck -6.639 1.14538 5.95642
upperneck 0.621418 0.96096 3.30442
head 1.32286 0.568718 0.0588564
lclavicle 7.74092e-015 1.02896e-015 0
lhumerus -58.4663 -44.8276 114.612
lradius 55.2106 0 0
lwrist 25.3703 0 0
lhand 37.1261 25.1276 0
lfingers 7.12502 0 0
lthumb 59.9732 38.9359 0
rclavicle 7.74092e-015 1.02896e-015 0
rhumerus 3.67705 -25.2259 0.710421
rradius 28.1946 0 0
rwrist -11.9702 0 0
rhand -31.5145 -45.1688 0
rfingers 7.12502 0 0
rthumb -4.77997 -795.094 0
989
root 1.09167 15.1378 32.5374 5.60619 -4.69534 363.978
lfemur 8.69486 1.87987 5.43042
ltibia -1.12879e-014 0 0
lfoot -30.1478 -11.7079 0
ltoes -33.8025 0 0
rfemur -33.3007 -16.1726 -5.9989
rtibia 51.2474 0 0
rfoot -22.7711 5.79658 0
rtoes -41.6116 0 0
lowerback -1.5799 -0.37756 0.602819
upperback -0.814118 -0.509663 -6.03688
thorax -0.0143529 -0.274613 -6.61476
lowerneck -6.6566 1.13796 5.96572
upperneck 0.652349 0.947367 3.30829
head 1.33584 0.563295 0.0582035
lclavicle 7.36479e-015 4.67684e-016 0
lhumerus -58.4707 -44.8751 114.631
lradius 55.2278 0 0
lwrist 25.3687 0 0
lhand 37.129 25.1225 0
lfingers 7.12502 0 0
lthumb 59.9757 38.9281 0
rclavicle 7.36479e-015 4.67684e-016 0
rhumerus 3.64897 -25.1829 0.697873
rradius 28.1791 0 0
rwrist -11.9172 0 0
rhand -31.4902 -45.0974 0
rfingers 7.12502 0 0
rthumb -4.75648 -795.023 0
990
root 1.09341 15.1385 32.5344 5.58258 -4.6537 363.964
lfemur 8.68578 1.8338 5.44074
ltibia -1.16309e-014 0 0
lfoot -30.1478 -11.6845 0
ltoes -33.8231 0 0
rfemur -33.2452 -16.1657 -5.9993
rtibia 51.2145 0 0
rfoot -22.7587 5.76125 0
rtoes -41.6427 0 0
lowerback -1.57597 -0.370546 0.592478
upperback -0.804849 -0.499691 -6.03339
thorax -0.00570655 -0.26921 -6.60493
lowerneck -6.67419 1.13055 5.97502
upperneck 0.68328 0.933775 3.31216
head 1.34882 0.557873 0.0575505
lclavicle 6.98866e-015 -9.35902e-017 0
lhumerus -58.4752 -44.9227 114.649
lradius 55.2449 0 0
lwrist 25.3672 0 0
lhand 37.132 25.1174 0
lfingers 7.12502 0 0
lthumb 59.9782 38.9204 0
rclavicle 6.98866e-015 -9.35902e-017 0
rhumerus 3.6209 -25.1399 0.685326
rradius 28.1637 0 0
rwrist -11.8642 0 0
rhand -31.4659 -45.0259 0
rfingers 7.12502 0 0
rthumb -4.733 -794.952 0
991
root 1.09516 15.1392 32.5314 5.55898 -4.61207 363.95
lfemur 8.6767 1.78773 5.45105
ltibia -1.19739e-014 0 0
lfoot -30.1477 -11.6611 0
ltoes -33.8437 0 0
rfemur -33.1897 -16.1588 -5.99971
rtibia 51.1816 0 0
rfoot -22.7463 5.72592 0
rtoes -41.6738 0 0
lowerback -1.57203 -0.363531 0.582138
upperback -0.795579 -0.48972 -6.02991
thorax 0.00293982 -0.263807 -6.5951
lowerneck -6.69179 1.12313 5.98432
upperneck 0.714211 0.920182 3.31604
head 1.36179 0.55245 0.0568976
lclavicle 6.61252e-015 -6.54865e-016 0
lhumerus -58.4796 -44.9702 114.667
lradius 55.262 0 0
lwrist 25.3657 0 0
lhand 37.1349 25.1123 0
lfingers 7.12502 0 0
lthumb 59.9807 38.9127 0
rclavicle 6.61252e-015 -6.54865e-016 0
rhumerus 3.59282 -25.0969 0.672778
rradius 28.1482 0 0
rwrist -11.8111 0 0
rhand -31.4416 -44.9545 0
rfingers 7.12502 0 0
rthumb -4.70952 -794.881 0
992
root 1.0969 15.1399 32.5285 5.53537 -4.57043 363.937
lfemur 8.66762 1.74166 5.46137
ltibia -1.23169e-014 0 0
lfoot -30.1476 -11.6378 0
ltoes -33.8642 0 0
rfemur -33.1343 -16.1518 -6.00011
rtibia 51.1486 0 0
rfoot -22.7339 5.69059 0
rtoes -41.7049 0 0
lowerback -1.5681 -0.356516 0.571798
upperback -0.78631 -0.479749 -6.02642
thorax 0.0115862 -0.258403 -6.58526
lowerneck -6.70939 1.11572 5.99362
upperneck 0.745142 0.906589 3.31991
head 1.37477 0.547027 0.0562447
lclavicle 6.23639e-015 -1.21614e-015 0
lhumerus -58.4841 -45.0178 114.686
lradius 55.2792 0 0
lwrist 25.3642 0 0
lhand 37.1378 25.1072 0
lfingers 7.12502 0 0
lthumb 59.9832 38.905 0
rclavicle 6.23639e-015 -1.21614e-015 0
rhumerus 3.56474 -25.0539 0.660231
rradius 28.1327 0 0
rwrist -11.7581 0 0
rhand -31.4173 -44.8831 0
rfingers 7.12502 0 0
rthumb -4.68603 -794.81 0
993
root 1.09865 15.1406 32.5255 5.51176 -4.5288 363.923
lfemur 8.65854 1.69559 5.47168
ltibia -1.26599e-014 0 0
lfoot -30.1476 -11.6144 0
ltoes -33.8848 0 0
rfemur -33.0788 -16.1449 -6.00052
rtibia 51.1157 0 0
rfoot -22.7215 5.65526 0
rtoes -41.7359 0 0
lowerback -1.56416 -0.349501 0.561457
upperback -0.77704 -0.469778 -6.02294
thorax 0.0202326 -0.253 -6.57543
lowerneck -6.72699 1.1083 6.00292
upperneck 0.776073 0.892996 3.32379
head 1.38775 0.541604 0.0555918
lclavicle 5.86026e-015 -1.77741e-015 0
lhumerus -58.4885 -45.0653 114.704
lradius 55.2963 0 0
lwrist 25.3627 0 0
lhand 37.1408 25.1021 0
lfingers 7.12502 0 0
lthumb 59.9857 38.8972 0
rclavicle 5.86026e-015 -1.77741e-015 0
rhumerus 3.53666 -25.0109 0.647683
rradius 28.1172 0 0
rwrist -11.7051 0 0
rhand -31.3929 -44.8116 0
rfingers 7.12502 0 0
rthumb -4.66255 -794.739 0
994
root 1.10039 15.1413 32.5225 5.48815 -4.48716 363.91
lfemur 8.64946 1.64952 5.482
ltibia -1.30029e-014 0 0
lfoot -30.1475 -11.591 0
ltoes -33.9054 0 0
rfemur -33.0233 -16.138 -6.00093
rtibia 51.0827 0 0
rfoot -22.7091 5.61993 0
rtoes -41.767 0 0
lowerback -1.56022 -0.342487 0.551117
upperback -0.767771 -0.459806 -6.01946
thorax 0.0288789 -0.247597 -6.5656
lowerneck -6.74458 1.10089 6.01222
upperneck 0.807004 0.879404 3.32766
head 1.40073 0.536181 0.0549389
lclavicle 5.48413e-015 -2.33869e-015 0
lhumerus -58.493 -45.1129 114.722
lradius 55.3135 0 0
lwrist 25.3612 0 0
lhand 37.1437 25.097 0
lfingers 7.12502 0 0
lthumb 59.9882 38.8895 0
rclavicle 5.48413e-015 -2.33869e-015 0
rhumerus 3.50858 -24.9679 0.635135
rradius 28.1017 0 0
rwrist -11.6521 0 0
rhand -31.3686 -44.7402 0
rfingers 7.12502 0 0
rthumb -4.63906 -794.668 0
995
root 1.10213 15.142 32.5195 5.46454 -4.44553 363.896
lfemur 8.64038 1.60345 5.49231
ltibia -1.33459e-014 0 0
lfoot -30.1475 -11.5676 0
ltoes -33.926 0 0
rfemur -32.9678 -16.131 -6.00133
rtibia 51.0498 0 0
rfoot -22.6967 5.5846 0
rtoes -41.7981 0 0
lowerback -1.55629 -0.335472 0.540776
upperback -0.758501 -0.449835 -6.01597
thorax 0.0375253 -0.242194 -6.55577
lowerneck -6.76218 1.09348 6.02152
upperneck 0.837935 0.865811 3.33153
head 1.41371 0.530758 0.054286
lclavicle 5.108e-015 -2.89996e-015 0
lhumerus -58.4974 -45.1604 114.741
lradius 55.3306 0 0
lwrist 25.3597 0 0
lhand 37.1466 25.0919 0
lfingers 7.12502 0 0
lthumb 59.9907 38.8818 0
rclavicle 5.108e-015 -2.89996e-015 0
rhumerus 3.4805 -24.9249 0.622588
rradius 28.0862 0 0
rwrist -11.5991 0 0
rhand -31.3443 -44.6687 0
rfingers 7.12502 0 0
rthumb -4.61558 -794.597 0
996
root 1.10388 15.1428 32.5166 5.44094 -4.40389 363.883
lfemur 8.63131 1.55737 5.50263
ltibia -1.36889e-014 0 0
lfoot -30.1474 -11.5442 0
ltoes -33.9465 0 0
rfemur -32.9123 -16.1241 -6.00174
rtibia 51.0168 0 0
rfoot -22.6844 5.54928 0
rtoes -41.8291 0 0
lowerback -1.55235 -0.328457 0.530436
upperback -0.749232 -0.439864 -6.01249
thorax 0.0461717 -0.23679 -6.54593
lowerneck -6.77978 1.08606 6.03083
upperneck 0.868866 0.852218 3.33541
head 1.42668 0.525335 0.053633
lclavicle 4.73186e-015 -3.46124e-015 0
lhumerus -58.5019 -45.208 114.759
lradius 55.3478 0 0
lwrist 25.3581 0 0
lhand 37.1496 25.0868 0
lfingers 7.12502 0 0
lthumb 59.9933 38.874 0
rclavicle 4.73186e-015 -3.46124e-015 0
rhumerus 3.45242 -24.8819 0.61004
rradius 28.0707 0 0
rwrist -11.546 0 0
rhand -31.32 -44.5973 0
rfingers 7.12502 0 0
rthumb -4.59209 -794.527 0
997
root 1.10562 15.1435 32.5136 5.41733 -4.36226 363.869
lfemur 8.62223 1.5113 5.51294
ltibia -1.40319e-014 0 0
lfoot -30.1474 -11.5208 0
ltoes -33.9671 0 0
rfemur -32.8568 -16.1171 -6.00214
rtibia 50.9839 0 0
rfoot -22.672 5.51395 0
rtoes -41.8602 0 0
lowerback -1.54842 -0.321442 0.520095
upperback -0.739962 -0.429893 -6.009
thorax 0.0548181 -0.231387 -6.5361
lowerneck -6.79738 1.07865 6.04013
upperneck 0.899797 0.838625 3.33928
head 1.43966 0.519912 0.0529801
lclavicle 4.35573e-015 -4.02251e-015 0
lhumerus -58.5063 -45.2555 114.778
lradius 55.3649 0 0
lwrist 25.3566 0 0
lhand 37.1525 25.0817 0
lfingers 7.12502 0 0
lthumb 59.9958 38.8663 0
rclavicle 4.35573e-015 -4.02251e-015 0
rhumerus 3.42434 -24.8389 0.597493
rradius 28.0552 0 0
rwrist -11.493 0 0
rhand -31.2957 -44.5258 0
rfingers 7.12502 0 0
rthumb -4.56861 -794.456 0
998
root 1.10736 15.1442 32.5106 5.39372 -4.32062 363.856
lfemur 8.61315 1.46523 5.52326
ltibia -1.43749e-014 0 0
lfoot -30.1473 -11.4974 0
ltoes -33.9877 0 0
rfemur -32.8013 -16.1102 -6.00255
rtibia 50.9509 0 0
rfoot -22.6596 5.47862 0
rtoes -41.8913 0 0
lowerback -1.54448 -0.314428 0.509755
upperback -0.730693 -0.419921 -6.00552
thorax 0.0634644 -0.225984 -6.52627
lowerneck -6.81497 1.07123 6.04943
upperneck 0.930728 0.825033 3.34315
head 1.45264 0.514489 0.0523272
lclavicle 3.9796e-015 -4.58379e-015 0
lhumerus -58.5108 -45.3031 114.796
lradius 55.3821 0 0
lwrist 25.3551 0 0
lhand 37.1554 25.0766 0
lfingers 7.12502 0 0
lthumb 59.9983 38.8586 0
rclavicle 3.9796e-015 -4.58379e-015 0
rhumerus 3.39626 -24.7959 0.584945
rradius 28.0397 0 0
rwrist -11.44 0 0
rhand -31.2714 -44.4544 0
rfingers 7.12502 0 0
rthumb -4.54512 -794.385 0
